<svg xmlns="http://www.w3.org/2000/svg" viewBox="0 0 256 256">
  <rect width="256" height="256" fill="#f6f1ea"/>
  <circle cx="128" cy="128" r="92" fill="#cfe0e8" stroke="#1a1815" stroke-width="3"/>
  <path d="M 56 100 Q 80 84, 104 100 Q 124 112, 144 100 Q 164 92, 188 104 L 184 124 Q 162 138, 140 132 Q 112 132, 76 128 Z"
        fill="#6b8459" opacity="0.9"/>
  <path d="M 80 164 Q 108 156, 140 168 Q 168 176, 188 164 L 184 192 Q 156 198, 124 192 Q 100 184, 88 178 Z"
        fill="#6b8459" opacity="0.9"/>
  <ellipse cx="128" cy="128" rx="92" ry="26" fill="none" stroke="#1a1815" stroke-width="1.2" opacity="0.35"/>
  <ellipse cx="128" cy="128" rx="32" ry="92" fill="none" stroke="#1a1815" stroke-width="1.2" opacity="0.35"/>
  <circle cx="150" cy="116" r="5" fill="#b56439"/>
</svg>
